<svg width="100" height="100" viewBox="0 0 100 100" fill="none" xmlns="http://www.w3.org/2000/svg">
<circle r="48.4095" transform="matrix(-0.012024 0.999928 0.999928 0.012024 50.0001 50)" stroke="#172D65" stroke-width="2"/>
<g clip-path="url(#clip0_13_182)">
<path d="M59.3306 43.1704L73.466 42.8023C74.3338 42.7797 75.056 43.5046 75.0799 44.4222L75.1664 47.7439C75.1903 48.6616 74.5068 49.4231 73.639 49.4457L59.216 49.8214C59.3772 49.2957 59.4757 48.7406 59.4604 48.1561L59.3306 43.1704ZM49.5619 30.1289C53.031 30.0396 55.9208 32.9403 56.0163 36.6077L56.3195 48.2483C56.3432 49.1597 55.6685 49.9169 54.8066 49.9394L54.7516 49.9408C52.1729 50.008 50.0225 47.8514 49.9515 45.1245L49.8561 41.4644C49.83 40.4595 49.469 40.1033 49.0352 40.1146L47.4449 40.156C47.0238 40.167 46.6909 40.5486 46.6809 40.9945C46.5775 45.6216 44.4288 47.7177 39.8189 51.1503L38.9064 51.8296C38.8221 51.8922 38.7504 51.9719 38.6954 52.0639C38.6403 52.156 38.603 52.2587 38.5856 52.3661C38.5681 52.4735 38.5709 52.5836 38.5937 52.6901C38.6165 52.7965 38.6589 52.8972 38.7184 52.9864L39.6261 54.3453C39.6856 54.4346 39.7611 54.5107 39.8484 54.5691C39.9356 54.6276 40.0328 54.6674 40.1345 54.6861C40.2361 54.7049 40.3402 54.7023 40.4408 54.6785C40.5414 54.6547 40.6365 54.6102 40.7207 54.5474L41.6333 53.8682C43.9074 52.175 45.7981 50.6227 47.2066 48.8087C47.7942 50.5874 49.0703 52.0219 50.6934 52.7555C50.3765 53.4483 50.1893 54.2188 50.2107 55.0398L50.2972 58.3616C50.3306 59.6425 50.8329 60.7876 51.6088 61.6514C50.878 62.5554 50.436 63.7252 50.4693 65.0051L50.5558 68.3268C50.5711 68.9123 50.6984 69.4626 50.8886 69.9801L43.2388 70.1794C39.9062 70.2662 36.6746 68.9501 34.2528 66.5192L31.5788 63.8361L25.2964 63.9998L24.6043 37.428L30.8828 37.2645L34.3117 33.445C36.0312 31.5297 38.4017 30.4172 40.9019 30.3524L49.5619 30.1289V30.1289ZM58.4919 33.2214L70.0653 32.9199C70.933 32.8973 71.6552 33.6222 71.6791 34.5399L71.7656 37.8616C71.7895 38.7792 71.1061 39.5408 70.2383 39.5634L59.2441 39.8497L59.1576 36.528C59.1271 35.3571 58.8715 34.2564 58.4919 33.2214ZM53.697 68.245L53.6105 64.9232C53.5866 64.0056 54.2701 63.2441 55.1378 63.2215L67.7027 62.8942C68.5704 62.8716 69.2926 63.5965 69.3165 64.5142L69.403 67.8359C69.4269 68.7535 68.7434 69.5151 67.8757 69.5377L55.3109 69.8649C54.4431 69.8875 53.7209 69.1626 53.697 68.245ZM53.4375 58.2808L53.351 54.9591C53.3271 54.0415 54.0105 53.2799 54.8783 53.2573L70.5843 52.8482C71.4521 52.8256 72.1743 53.5506 72.1982 54.4682L72.2847 57.7899C72.3086 58.7075 71.6251 59.4691 70.7574 59.4917L55.0513 59.9008C54.1836 59.9234 53.4614 59.1985 53.4375 58.2808V58.2808Z" fill="#172D65"/>
</g>
<defs>
<clipPath id="clip0_13_182">
<rect width="39.8743" height="50.2763" fill="white" transform="matrix(-0.0260375 -0.999661 -0.999661 0.0260375 75.7287 69.3331)"/>
</clipPath>
</defs>
</svg>
